<svg xmlns="http://www.w3.org/2000/svg" width="281.44" height="260.74" viewBox="0 0 281.44 260.74"><path d="M264.5,49.21C227.57-7.14,142.21-16.48,73.84,28.36S-20,155.17,16.94,211.52s122.3,65.69,190.66,20.85,93.84-126.82,56.9-183.16" transform="translate(0 0)" fill="#642a7c"/><path d="M109.62,133.68a23.31,23.31,0,0,0,7.15,19.83c8.08,7.53,21.12,9,33.23,3.73,2.26-1,4.63-.2,5.31,1.75s-.62,4.34-2.87,5.31c-15.39,6.7-32,4.83-42.23-4.74-6.84-6.38-10.07-15.34-9.1-25.2s6-19.48,14.27-27.05l2.83-2.61.06,0a257,257,0,0,1,29.82-23c2.07-1.37,4.67-1.09,5.79.61h0c1.12,1.7.35,4.19-1.72,5.55a245,245,0,0,0-31.3,24.49l-1.28,1.18a33.4,33.4,0,0,0-10,20.09m-20.25,45.1c23.2,21.63,64.37,18.83,92.81-5.94l1.74-1.67a119.55,119.55,0,0,1,24.42-17.4c2.18-1.17,4.67-.63,5.57,1.22s-.15,4.29-2.34,5.46a107.71,107.71,0,0,0-20.26,14.07l-1.87,1.8c-32.09,29.58-79.93,33.4-106.63,8.5S60.48,115.61,92.57,86l2.07-1.91h0a299.76,299.76,0,0,1,72-48.33c2-1,4.17-.5,5.15,1a4,4,0,0,1,.28.54c.77,1.9-.42,4.32-2.65,5.38A289.14,289.14,0,0,0,98.05,91.12l-1,.9C69.46,118.26,65.94,157,89.36,178.78M54.16,126a3.48,3.48,0,0,1,3,1.5,3.3,3.3,0,0,1,.43,2.51c-4.87,23.75,1.74,46.12,18.11,61.39a65.46,65.46,0,0,0,14.22,10.05c1.88,1,2.26,3.37.84,5.31a4.91,4.91,0,0,1-6,1.74,71.51,71.51,0,0,1-15.64-11.05c-18-16.8-25.3-41.42-19.93-67.55a5.16,5.16,0,0,1,5-3.9m59.48,100c19.84,1.73,40.6-2.16,60-11.27,2.23-1.05,4.66-.33,5.4,1.58s-.46,4.33-2.69,5.36c-21.05,9.86-43.53,14.08-65,12.2-22-1.92-41.35-10.15-56-23.8-38.58-36-33-99.54,11.93-143l0,0,2.47-2.3C73.41,61.36,77.18,58,81,54.82c1.89-1.6,4.57-1.67,6-.19a3.5,3.5,0,0,1,.33.43c1,1.51.51,3.7-1.2,5.16-3.15,2.67-6.28,5.41-9.34,8.2l-1.51,1.42C31.62,110,25.67,170.24,61.94,204.06c13.52,12.6,31.4,20.2,51.69,22M172.24,76c-2.19,1.16-4.67.6-5.56-1.25s.19-4.29,2.38-5.45a243.11,243.11,0,0,1,86.83-26.95,100.53,100.53,0,0,0-7-7.62c-50.86,7.16-100.3,30.89-139.47,67l-1.25,1.16c-10.34,10.08-16.36,23-16.55,35.73a5,5,0,0,1-4.33,4.55c-2.37.35-4.25-1.1-4.21-3.26.22-15.5,7.83-31.27,20.85-43.28l2.64-2.44.05,0C145,59.81,192.4,36.62,241.46,28.13a104.45,104.45,0,0,0-9.34-6.7,274.07,274.07,0,0,0-41.24,12.1c-2.3.87-4.6-.05-5.15-2.05s.87-4.33,3.17-5.2a287.26,287.26,0,0,1,33.42-10.42A114.44,114.44,0,0,0,210,10.61,309.69,309.69,0,0,0,87.32,79.82l-.7.67A99.19,99.19,0,0,0,64.3,110.22,5.15,5.15,0,0,1,58.61,113a3.28,3.28,0,0,1-2.35-4,2.88,2.88,0,0,1,.35-.85A108.92,108.92,0,0,1,80,76.52v0l1.2-1.1a321.78,321.78,0,0,1,116-68.68,130.58,130.58,0,0,0-16.19-2.85,332.05,332.05,0,0,0-76.5,41.9c-2,1.46-4.63,1.33-5.88-.28s-.64-4.13,1.36-5.59A343.66,343.66,0,0,1,163.57,3a151.48,151.48,0,0,0-22.8,2,357.71,357.71,0,0,0-75,52.4l-1.95,1.81C30.21,90.19,14.33,133,22.37,170.88c.44,2-1.09,4.33-3.41,5.1s-4.55-.26-5-2.3c-8.38-39.5,7.5-84,41.54-116.9l0,0,2.83-2.65a369.64,369.64,0,0,1,55.56-42.26,174.06,174.06,0,0,0-38.45,19c-67.06,44-92,124.4-55.81,179.66s120,64.42,187,20.45a173.17,173.17,0,0,0,37.05-32.6,39.61,39.61,0,0,0-19,9l-1,1c-26.51,24.45-60.06,39.46-94.42,42.19a126.32,126.32,0,0,1-51-6,101.34,101.34,0,0,1-36.55-21.72,92.39,92.39,0,0,1-21.61-30.23c-.83-1.88.28-4.3,2.49-5.43s4.67-.5,5.5,1.37a86.26,86.26,0,0,0,20.18,28.24c20.62,19.23,49.66,28.4,81.75,25.84,31.35-2.5,62-15.91,86.45-37.81l1.73-1.62a49.38,49.38,0,0,1,32.17-13.19q3.12-4.2,5.9-8.51c-14.72-1.07-30.48,4.37-42.61,14.89l-1.38,1.3a142.31,142.31,0,0,1-14.48,11.69c-2,1.43-4.65,1.25-5.85-.4s-.54-4.14,1.49-5.57A132,132,0,0,0,205,194.16l1.8-1.69c15.1-13.93,35.5-20.89,54.12-18.71q2.33-4.12,4.39-8.33c-21.4-3.09-44.88,4.33-62.78,20L200.82,187C174,211.7,137.28,222.75,105,215.81a3.28,3.28,0,0,1-2.6-3.83,3.46,3.46,0,0,1,.3-.89,5.16,5.16,0,0,1,5.58-3c28.59,6.16,61-3.24,85.23-24.56l1.79-1.67c20.6-19,48.33-28,73.42-24.11,1.18-2.82,2.25-5.65,3.23-8.5a93,93,0,0,0-38.87,2.57c-2.34.65-4.47-.51-4.77-2.6s1.37-4.3,3.7-4.94a101.9,101.9,0,0,1,42.4-2.92q1.2-4.34,2.1-8.67c-32.87-4.65-69.25,7-96.47,31.05l-2,1.95c-24.53,22.62-61.1,25.54-81.52,6.5a41.36,41.36,0,0,1-8.44-11c-1-1.81,0-4.26,2.17-5.49s4.67-.76,5.63,1.06a35.64,35.64,0,0,0,7.21,9.39c16.93,15.78,46.9,13.85,67.76-4l1.67-1.58c29.34-27.06,69.24-40.5,105.4-35.85q.6-4.41.9-8.8c-36.15-4-75.53,8.4-106,33.66-1.91,1.58-4.57,1.63-6,.12s-1-4,.93-5.59c32-26.53,73.23-39.85,111.32-36.26,0-3-.14-5.91-.38-8.84a152.78,152.78,0,0,0-52,5.4c-2.33.64-4.47-.52-4.75-2.61s1.37-4.3,3.71-5a163.62,163.62,0,0,1,52.1-5.92c-.47-2.94-1.07-5.86-1.78-8.75-47.12-1.31-95.15,17.37-132.21,51.55-1.82,1.66-4.5,1.88-6,.47s-1.26-3.9.55-5.57c38-35,86.94-54.63,135.31-54.42q-1.47-4.35-3.34-8.57c-49.4,1.17-99.53,22-138,57.44l-1,.9c-4.93,5.3-5.38,12.67-.83,16.92s12,3.88,17.74-.29l1.44-1.34a186.1,186.1,0,0,1,52.82-34.3c2.26-1,4.63-.17,5.29,1.79s-.64,4.33-2.9,5.3a175,175,0,0,0-46.54,29.43l0,0-3.17,2.92c-9.41,8.67-23.44,9.8-31.28,2.5s-6.55-20.3,2.87-29l2.93-2.72.07,0c38.57-34.34,87.76-54.95,136.64-57.38-1.24-2.25-2.56-4.47-4-6.65-.34-.53-.71-1.05-1.07-1.57A231.54,231.54,0,0,0,172.22,76" transform="translate(0 0)" fill="#f5f5f5" opacity="0.13" style="isolation:isolate"/><g style="isolation:isolate"><g style="isolation:isolate"><path d="M79,74,72.23,95H65.87l-4-12.78L57.65,95H51.29L44.48,74H50.6l4.23,13.41L59.27,74h5.46L69,87.53,73.37,74Z" transform="translate(0 0)" fill="#fff"/><path d="M98.93,90.41V95H82.07V74H98.54v4.59H88v3.54h9.33v4.44H88v3.84Z" transform="translate(0 0)" fill="#fff"/><path d="M131.69,81.77c0,4.77-3.6,7.74-9.33,7.74H118.7V95h-5.94V74h9.6C128.09,74,131.69,77,131.69,81.77Zm-6,0c0-2-1.23-3.09-3.69-3.09h-3.3v6.15H122C124.46,84.83,125.69,83.69,125.69,81.77Z" transform="translate(0 0)" fill="#fff"/><path d="M135.47,74h5.94V90.29h10V95h-16Z" transform="translate(0 0)" fill="#fff"/><path d="M171.53,90.41V95H154.67V74h16.47v4.59H160.55v3.54h9.33v4.44h-9.33v3.84Z" transform="translate(0 0)" fill="#fff"/><path d="M175.73,74h9.93c7,0,11.73,4,11.73,10.5S192.62,95,185.66,95h-9.93Zm9.69,16.26c3.57,0,6-2.13,6-5.76s-2.4-5.76-6-5.76h-3.75V90.26Z" transform="translate(0 0)" fill="#fff"/><path d="M215.48,84.05h5.25v8.7a15.66,15.66,0,0,1-8.82,2.67c-6.69,0-11.58-4.53-11.58-10.92s4.89-10.92,11.7-10.92c3.93,0,7.11,1.35,9.18,3.84l-3.78,3.42a6.55,6.55,0,0,0-5.1-2.34,6,6,0,0,0-.06,12,7.55,7.55,0,0,0,3.21-.69Z" transform="translate(0 0)" fill="#fff"/><path d="M242.27,90.41V95H225.41V74h16.47v4.59H231.29v3.54h9.33v4.44h-9.33v3.84Z" transform="translate(0 0)" fill="#fff"/></g></g><g style="isolation:isolate"><g style="isolation:isolate"><path d="M53,115.62H46.13v-5H66.19v5H59.34V133H53Z" transform="translate(0 0)" fill="#fff"/><path d="M68.05,121.8c0-6.72,5.28-11.65,12.45-11.65s12.44,4.93,12.44,11.65-5.28,11.65-12.44,11.65S68.05,128.52,68.05,121.8Zm18.49,0c0-3.87-2.65-6.4-6-6.4s-6,2.53-6,6.4,2.65,6.4,6,6.4S86.54,125.67,86.54,121.8Z" transform="translate(0 0)" fill="#fff"/><path d="M112.27,115.62h-6.88v-5h20.06v5h-6.84V133h-6.34Z" transform="translate(0 0)" fill="#fff"/><path d="M142.67,128.65H133.2L131.44,133H125l9.88-22.4h6.24L151,133h-6.59ZM140.81,124l-2.88-7.17L135.05,124Z" transform="translate(0 0)" fill="#fff"/><path d="M152.3,121.8c0-6.81,5.22-11.65,12.32-11.65a11.84,11.84,0,0,1,9.63,4.23l-4,3.65a6.61,6.61,0,0,0-5.28-2.63,6.4,6.4,0,0,0,0,12.8,6.63,6.63,0,0,0,5.28-2.62l4,3.64a11.84,11.84,0,0,1-9.63,4.23C157.52,133.45,152.3,128.62,152.3,121.8Z" transform="translate(0 0)" fill="#fff"/><path d="M186.67,124.87l-2.37,2.53V133H178V110.6h6.27v9.31L193,110.6h7l-9.15,9.92L200.43,133h-7.36Z" transform="translate(0 0)" fill="#fff"/><path d="M203.06,110.6h6.33V128h10.69v5h-17Z" transform="translate(0 0)" fill="#fff"/><path d="M241.52,128.1V133h-18V110.6H241.1v4.9H229.81v3.77h9.95V124h-9.95v4.09Z" transform="translate(0 0)" fill="#fff"/></g></g><g style="isolation:isolate"><g style="isolation:isolate"><path d="M59.67,158.11V166H75.42v7.8H59.67V186H49.57V150.3h28v7.81Z" transform="translate(0 0)" fill="#fff"/><path d="M99.45,176.51H93.94V186H83.84V150.3h16.32c9.74,0,15.86,5,15.86,13.21a11.84,11.84,0,0,1-7,11.27l7.7,11.22H105.92Zm.1-18.25H93.94v10.45h5.61c4.18,0,6.27-1.93,6.27-5.2S103.73,158.26,99.55,158.26Z" transform="translate(0 0)" fill="#fff"/><path d="M147,179.06h-15.1l-2.8,6.94h-10.3l15.75-35.7h9.95L160.34,186H149.83Zm-3-7.44-4.59-11.42-4.59,11.42Z" transform="translate(0 0)" fill="#fff"/><path d="M163.66,170.09V150.3h10.09v19.48c0,6.12,2.55,8.57,6.79,8.57s6.73-2.45,6.73-8.57V150.3h9.94v19.79c0,10.66-6.22,16.62-16.78,16.62S163.66,180.75,163.66,170.09Z" transform="translate(0 0)" fill="#fff"/><path d="M205.58,150.3h16.88c11.83,0,19.94,6.89,19.94,17.85S234.29,186,222.46,186H205.58Zm16.47,27.64c6.07,0,10.15-3.62,10.15-9.79s-4.08-9.79-10.15-9.79h-6.38v19.58Z" transform="translate(0 0)" fill="#fff"/></g></g></svg>