<svg xmlns="http://www.w3.org/2000/svg" xmlns:xlink="http://www.w3.org/1999/xlink" width="1080" zoomAndPan="magnify"
    viewBox="0 0 810 809.999993" height="1080" preserveAspectRatio="xMidYMid meet" version="1.0">
    <defs>
        <clipPath id="8f4447f620">
            <path d="M 44.550781 0 L 763 0 L 763 810 L 44.550781 810 Z M 44.550781 0 " clip-rule="nonzero" />
        </clipPath>
    </defs>
    <g clip-path="url(#8f4447f620)">
        <path
            d="M 552.382812 211.917969 C 551.621094 211.039062 550.871094 210.15625 550.121094 209.277344 C 547.511719 212.011719 544.910156 214.75 542.3125 217.484375 C 543.101562 218.214844 543.890625 218.945312 544.6875 219.667969 C 547.25 217.089844 549.820312 214.496094 552.382812 211.917969 Z M 546.757812 181.5625 C 547.558594 182.648438 548.359375 183.738281 549.167969 184.824219 C 551.554688 182.253906 553.941406 179.671875 556.332031 177.101562 C 555.703125 176.484375 555.089844 175.871094 554.472656 175.253906 C 551.902344 177.351562 549.332031 179.460938 546.757812 181.5625 Z M 603.105469 143.308594 C 603.734375 144.019531 604.359375 144.734375 604.984375 145.445312 C 607.449219 143.191406 609.914062 140.9375 612.371094 138.695312 C 611.800781 138.097656 611.234375 137.5 610.664062 136.902344 C 608.140625 139.03125 605.621094 141.171875 603.105469 143.308594 Z M 472.40625 350.386719 C 473.398438 350.972656 474.398438 351.570312 475.390625 352.15625 C 480.050781 346.878906 484.722656 341.613281 492.609375 332.683594 C 486.261719 335.199219 484.171875 335.378906 483.199219 336.527344 C 479.40625 340.976562 475.96875 345.734375 472.40625 350.386719 Z M 513.65625 242.511719 C 514.957031 243.871094 516.265625 245.230469 517.574219 246.585938 C 523.554688 240.382812 529.523438 234.191406 535.503906 227.988281 C 534.433594 226.949219 533.355469 225.917969 532.289062 224.878906 C 526.078125 230.765625 519.867188 236.636719 513.65625 242.511719 Z M 141.816406 198.164062 C 145.695312 204.347656 149.585938 210.539062 153.746094 217.175781 C 162.785156 206.820312 162.785156 206.820312 141.816406 198.164062 Z M 345.375 576.5 C 346.664062 577.925781 347.957031 579.351562 349.253906 580.777344 C 360.414062 567.59375 371.585938 554.417969 382.746094 541.234375 C 381.511719 540.183594 380.28125 539.125 379.039062 538.074219 C 367.820312 550.882812 356.59375 563.683594 345.375 576.5 Z M 256.253906 333.433594 C 275.847656 351.78125 294.246094 371.3125 317.992188 384.0625 C 302.683594 360.601562 279.167969 347.179688 256.253906 333.433594 Z M 603.675781 536.949219 C 578.792969 505.109375 508.523438 454.578125 486.636719 451.351562 C 527.183594 481.003906 565.429688 508.980469 603.675781 536.949219 Z M 161.660156 144.761719 C 184.625 181.4375 217.140625 208.496094 248.636719 236.707031 C 246.632812 230.773438 242.898438 226.34375 239.035156 222.019531 C 229.242188 211.070312 217.59375 201.292969 209.984375 188.996094 C 197.84375 169.367188 180.800781 156.078125 161.660156 144.761719 Z M 574.960938 245.902344 C 579.246094 243.023438 583.523438 240.152344 587.804688 237.285156 C 586.496094 236.070312 585.179688 234.867188 583.867188 233.652344 C 581.039062 237.910156 578.195312 242.167969 575.367188 246.421875 C 559.410156 260.851562 543.214844 275.015625 527.65625 289.855469 C 522.851562 294.441406 519.761719 300.824219 515.878906 306.394531 C 508.0625 307.191406 504.855469 312.324219 504.933594 320.386719 C 508.464844 315.582031 512 310.765625 515.535156 305.949219 C 529.589844 293.601562 544.09375 281.710938 557.523438 268.71875 C 564.320312 262.128906 569.203125 253.558594 574.960938 245.902344 Z M 661.109375 57.730469 C 675.4375 50.160156 682.339844 36.613281 689.976562 23.648438 C 675.628906 31.390625 661.824219 39.578125 661.601562 58.347656 C 646.011719 68.652344 632.234375 80.894531 621.601562 96.484375 C 639.773438 88.800781 651.578125 74.46875 661.109375 57.730469 Z M 534.039062 365.5625 C 537.226562 362.152344 540.40625 358.746094 543.589844 355.335938 C 542.320312 354.574219 541.039062 353.8125 539.777344 353.0625 C 538.046875 357.464844 536.3125 361.863281 534.578125 366.265625 C 522.640625 366.640625 518.238281 375.636719 512.566406 383.167969 C 513.511719 384.167969 514.457031 385.179688 515.410156 386.191406 C 521.65625 379.355469 527.898438 372.527344 534.039062 365.5625 Z M 111.746094 714.796875 C 100.09375 724.601562 88.617188 734.625 76.746094 744.140625 C 65.09375 753.472656 62.9375 772.15625 44.574219 777.007812 C 48.347656 740.414062 77.785156 719.699219 90.4375 688.996094 C 78.816406 700.820312 67.191406 712.648438 55.570312 724.476562 C 54.222656 723.347656 52.867188 722.222656 51.5 721.09375 C 54.492188 705.175781 70.667969 697.886719 78.671875 685.222656 C 87.296875 671.582031 98.324219 659.496094 107.894531 646.429688 C 117.453125 633.378906 126.246094 619.761719 135.855469 606.75 C 145.464844 593.730469 155.601562 581.085938 165.644531 568.382812 C 175.6875 555.679688 185.855469 543.082031 196.042969 530.496094 C 206.242188 517.917969 216.496094 505.371094 226.816406 492.886719 C 237.128906 480.40625 247.558594 468.011719 257.957031 455.589844 C 268.289062 443.242188 278.640625 430.914062 290.105469 417.242188 C 271.148438 400.597656 253.140625 385.074219 235.464844 369.195312 C 210.832031 347.070312 186.433594 324.691406 161.957031 302.394531 C 126.253906 269.902344 99.738281 229.734375 70.410156 191.941406 C 66.308594 186.65625 65.929688 178.449219 62.90625 168.589844 C 78.652344 171.0625 83.582031 183.671875 95.261719 187.136719 C 99.332031 181.6875 103.667969 175.871094 109.453125 168.105469 C 112.179688 175.339844 114.046875 180.308594 116.695312 187.359375 C 123.789062 171.035156 134.59375 182.660156 145.242188 182.976562 C 142.34375 170.765625 130.933594 158.1875 149.96875 152.292969 C 133.574219 121.464844 133.574219 121.464844 158.25 110.351562 C 166.6875 117.902344 175.449219 125.742188 184.527344 133.851562 C 189.246094 115.949219 181.714844 103.457031 170.277344 92.007812 C 164.335938 86.054688 159.367188 79.121094 153.976562 72.601562 C 148.640625 66.15625 145.148438 59.097656 144.703125 51.078125 C 146.050781 50.238281 147.398438 49.410156 148.746094 48.582031 C 174.648438 77.472656 199.925781 106.960938 226.625 135.085938 C 253.265625 163.15625 280.882812 190.363281 308.929688 217.050781 C 337.363281 244.101562 366.855469 270.066406 397.167969 297.675781 C 411.160156 283.289062 423.128906 270.671875 435.433594 258.375 C 470.796875 223.039062 506.230469 187.761719 541.78125 152.59375 C 583.308594 111.5 624.78125 70.355469 666.742188 29.714844 C 675.765625 20.972656 686.566406 13.980469 696.984375 6.8125 C 700.578125 4.339844 705.480469 3.78125 714.828125 0.671875 C 699.019531 38.035156 668.023438 57.742188 650.105469 85.449219 C 655.023438 90.53125 659.453125 95.097656 664.808594 100.617188 C 676.902344 95.203125 690.660156 88.222656 701.636719 75.808594 C 708.992188 67.488281 711.34375 68.613281 724.648438 77.945312 C 712.929688 87.566406 701.519531 96.40625 690.726562 105.953125 C 680.339844 115.128906 670.585938 125.019531 662.746094 137.617188 C 674.820312 129.363281 686.546875 120.542969 699.066406 113.019531 C 711.140625 105.75 724.023438 99.808594 736.550781 93.289062 C 737.78125 94.636719 739.007812 95.972656 740.238281 97.324219 C 735.441406 104.152344 730.65625 110.980469 726.230469 117.304688 C 737.667969 117.113281 749.386719 116.921875 762.046875 116.707031 C 765.242188 135.210938 737.8125 135.382812 742.144531 152.804688 C 733.324219 163.550781 724.496094 174.300781 715.328125 185.460938 C 718.351562 187.359375 721.058594 189.054688 725.003906 191.546875 C 658.242188 259.269531 591.890625 326.570312 523.96875 395.464844 C 598.542969 449.628906 665.566406 507.980469 734.007812 568.566406 C 724.707031 572.910156 718.816406 575.664062 714.566406 577.648438 C 694.28125 576.984375 685.863281 548.464844 660.6875 560.484375 C 667.484375 566.628906 673.492188 572.207031 679.675781 577.578125 C 684.765625 581.992188 691.824219 584.53125 689.023438 594.242188 C 688.242188 596.9375 693.414062 602.242188 696.878906 605.125 C 707.164062 613.65625 718.015625 621.515625 728.53125 629.796875 C 731.621094 632.234375 734.289062 635.191406 739.777344 640.410156 C 723.1875 642.210938 716.332031 629.652344 703.679688 626.675781 C 688.117188 644.617188 673.933594 627.285156 654.996094 619.820312 C 668.0625 637.335938 685.789062 645.4375 693.078125 664.234375 C 673.289062 672.828125 656.507812 678.460938 638.203125 661.742188 C 622.808594 647.691406 604.503906 636.828125 587.480469 624.546875 C 586.574219 625.644531 585.667969 626.742188 584.765625 627.84375 C 615.335938 652.5625 645.894531 677.285156 679.132812 704.171875 C 666.25 707.3125 660.582031 701.871094 654.589844 697.886719 C 580.066406 648.277344 508.484375 594.664062 438.890625 538.375 C 431.320312 532.257812 423.203125 526.828125 413.933594 520.046875 C 406.054688 528.484375 398.824219 535.851562 392.007812 543.601562 C 361.3125 578.496094 330.316406 613.136719 300.234375 648.546875 C 270.6875 683.351562 242.492188 719.3125 212.914062 754.097656 C 200.222656 769.035156 186.230469 783.058594 171.546875 796.03125 C 161.8125 804.628906 149.394531 809.292969 131.492188 809.328125 C 137.703125 797.964844 141.941406 790.203125 146.839844 781.207031 C 142.75 778.242188 138.492188 775.171875 134.207031 772.078125 C 137.714844 761.582031 141.238281 751.015625 145.695312 737.640625 C 137.90625 739.644531 132.214844 741.105469 126.707031 742.523438 C 117.128906 740.875 112.101562 731.535156 111.273438 714.207031 C 125.457031 708.402344 126.6875 707.199219 132.003906 692.191406 C 122.222656 699.242188 115.492188 705.558594 111.746094 714.796875 "
            fill-opacity="1" fill-rule="nonzero" />
    </g>
</svg>