<?xml version="1.0" encoding="UTF-8"?>
<svg id="threestages" data-name="Three Stages" xmlns="http://www.w3.org/2000/svg"
  xmlns:xlink="http://www.w3.org/1999/xlink" viewBox="0 0 1059.18 1076.93">
  <defs>
    <style>
      .thst-1 {
        clip-path: url(#clippath);
      }

      .thst-2 {
        fill: none;
      }

      .thst-2,
      .thst-3,
      .thst-4,
      .thst-5,
      .thst-6 {
        stroke-width: 0px;
      }

      .thst-7 {
        clip-path: url(#clippath-1);
      }

      .thst-8 {
        clip-path: url(#clippath-4);
      }

      .thst-9 {
        clip-path: url(#clippath-3);
      }

      .thst-10 {
        clip-path: url(#clippath-2);
      }

      .thst-11 {
        clip-path: url(#clippath-6);
      }

      .thst-12 {
        clip-path: url(#clippath-5);
      }

      .thst-3 {
        fill: #f3a061;
      }

      .thst-4 {
        fill: #3c3735;
      }

      .thst-5 {
        fill: #93b195;
      }

      .thst-6 {
        fill: #cea0b5;
      }
    </style>
    <clipPath id="clippath">
      <polygon class="thst-2" points="950.17 506.35 827.71 298.2 886.35 263.7 1008.8 472.17 950.17 506.35" />
    </clipPath>
    <clipPath id="clippath-1">
      <polygon class="thst-2" points="827.87 298.2 950.49 506.83 1009.13 472.33 886.51 263.86 827.87 298.2" />
    </clipPath>
    <clipPath id="clippath-2">
      <polygon class="thst-2" points="230.82 327.36 79.21 515.74 26.24 473.14 177.69 284.76 230.82 327.36" />
    </clipPath>
    <clipPath id="clippath-3">
      <polygon class="thst-2" points="79.53 515.58 230.98 327.04 178.01 284.43 26.56 472.82 79.53 515.58" />
    </clipPath>
    <clipPath id="clippath-4">
      <rect class="thst-2" x="264.03" width="531.29" height="597.86" />
    </clipPath>
    <clipPath id="clippath-5">
      <rect class="thst-2" x="508.61" y="465.04" width="550.57" height="605.15" />
    </clipPath>
    <clipPath id="clippath-6">
      <rect class="thst-2" x="0" y="465.04" width="518.33" height="605.15" />
    </clipPath>
  </defs>
  <g id="CtoE">
    <g class="thst-1">
      <g class="thst-7">
        <path class="thst-4"
          d="m831.6,300.63c2.37-13.36,37.4,2.94,45.16,5.76,57.81,21.41,94.94,100.05,91.87,164.32,11.45-33.88,26.34-24.13,11.18,5.19-4.73,10.48-7.35,21.8-20.9,16.03-3.63.44-7.58-12.05-9.39-14.09-6.48-9.11-14.22-17.94-23.65-24.46-7.87-4.92,6.52-5.4,9.72-3.24,10.05,2.85,27.44,32.09,22.51,9.07-2.81-68.48-41.15-137.1-106.26-152.26l.97.65c-6.71-1.91-14.07-4.34-21.71-4.05.49-1.13-.32-2.11.65-2.92h-.16Zm39.85,10.85h.32-.32Zm8.58,6.48v-.16.16Zm-8.58-6.8c.02.13-.08.4.16.32l-.16-.32Zm.65.49l.16.16c-.14.02-.18-.02-.16-.16Zm-20.73-5.18v-.16.16Z" />
      </g>
    </g>
  </g>
  <g id="EtoD">
    <path class="thst-4"
      d="m650.18,1013.82c8.08,17.63-38.34,43.28-53.77,50.7-52.67,24.46-112.2,9.67-160.52-17.82,14.18,19.71,14.96,40.98-11.83,6-6.11-8.24-14.39-16.65-4.69-25.27,6.08-4.84,18.69-.25,25.75-2.43,6.37,1.59,30.37-11.89,29.64-5.99-1.56,17.23-50,14.82-25.43,23.49,60.6,32.81,139.03,33.72,185.14-14.41l-.97.49c3.72-1.11,15.36-20.66,16.68-14.74Zm-39.36,33.04v.16-.16Zm10.04-4.05h-.32.32Zm-.81.32v.16-.16Zm15.06-15.23l.16.16c-.14.02-.18-.02-.16-.16Zm1.62-1.94l.16-.32-.16.32Z" />
  </g>
  <g id="DtoC">
    <g class="thst-10">
      <g class="thst-9">
        <path class="thst-4"
          d="m80.34,511.2c-19.13-6.41-9.57-55.95-5.84-73.7,14.03-56.42,63.26-94.68,115.66-113.87-3.42-5.53-24.81,3.47-26.24-9.07,13.88-6.84,57.41-10.45,49.08,13.77-11.49,11.63-19.89,26.58-23.81,42.44-13.13-.2-.56-28.17,3.72-36.77-24.11,6.26-56.25,27.39-75.16,48.75-27.13,29.04-43.92,66.18-38.55,107.39v-1.13c-1.02,4.01,6.65,24.71,1.13,22.19Zm-3.89-41.14v-.32.32Zm2.92-10.2h-.16.16Zm-3.24,10.37c.24.08.14-.19.16-.32l-.16.32Zm.32-.81v-.16.16Zm2.43,21.22c-.14-.02-.18.02-.16.16-.02-.14.02-.18.16-.16Zm.49,2.43v.49-.49Z" />
      </g>
    </g>
  </g>
  <g id="Curiosity">
    <g class="thst-8">
      <path class="thst-5"
        d="m366.07,502.46l58.96-16.2,16.2,59.61,88.28,50.86,97.19-56.04,45.03,12.31,12.15-45.35,110.63-63.82V152.91L529.51,0l-264.51,152.91v290.91l101.07,58.64Z" />
    </g>
    <path class="thst-4"
      d="m397.17,306.63c1.54.02,3.07-.19,4.54-.65l3.24-1.3.97-.81,4.21,8.58c-.68.6-1.44,1.09-2.27,1.46-2.18,1.15-4.53,1.91-6.97,2.27l-5.18.32c-8.37.07-16.16-4.23-20.57-11.34-3.96-6.11-4.45-13.85-1.3-20.41,1.3-2.75,2.92-5.18,5.18-7.29,8.11-7.38,20.01-8.81,29.64-3.56l1.62.97-4.37,8.58c-1.25-.94-2.68-1.61-4.21-1.94-1.46-.49-2.92-.81-4.54-.81-2.43,0-4.54.49-6.48,1.13-1.75.71-3.3,1.82-4.54,3.24-1.08,1.2-1.96,2.57-2.59,4.05-1.72,4.67-.59,9.91,2.92,13.44,2.43,2.75,6.16,4.05,10.69,4.05Z" />
    <path class="thst-4"
      d="m449.49,271.64v28.35c0,5.51-1.46,9.72-4.37,12.31-2.92,2.92-7.29,4.21-12.96,4.21s-9.72-1.3-12.63-4.21c-2.92-2.75-4.37-6.8-4.37-12.31v-28.35h10.04v25.43c0,3.56.49,6.16,1.62,7.45,1.13,1.46,2.92,2.11,5.51,2.11s4.37-.65,5.51-2.11c1.13-1.3,1.62-3.89,1.62-7.45v-25.43h10.04Z" />
    <path class="thst-4"
      d="m456.94,271.64h15.87c4.21,0,7.61,1.13,10.37,3.24,2.72,2.47,4.15,6.05,3.89,9.72,0,3.24-.81,6.16-2.43,8.26-1.61,2.21-3.88,3.85-6.48,4.7l15.06,18.14h-12.8l-13.44-17.33v17.33h-10.04v-44.06Z" />
    <path class="thst-5"
      d="m466.98,291.08h3.56c.65,0,1.46,0,2.27-.32.81-.16,1.46-.49,1.94-.97.49-.32.81-.81,1.3-1.62.32-.81.49-1.62.49-2.75,0-.97-.16-1.94-.49-2.75-.49-.65-.81-1.3-1.3-1.62-.49-.49-1.13-.81-1.94-.97-1.5-.27-3.01-.44-4.54-.49h-1.3v11.5Z" />
    <rect class="thst-4" x="496.95" y="271.64" width="10.04" height="44.06" />
    <path class="thst-4"
      d="m512.99,293.67c0-6.48,2.11-11.82,6.48-16.2s9.72-6.64,15.71-6.64c12.34.09,22.28,10.17,22.19,22.51,0,.05,0,.11,0,.16,0,6.48-2.11,11.99-6.48,16.36-4.07,4.33-9.77,6.74-15.71,6.64-5.97.19-11.74-2.17-15.87-6.48-4.27-4.36-6.61-10.26-6.48-16.36h.16Z" />
    <path class="thst-5"
      d="m523.84,293.67c0,2.27.32,4.37.97,6.32,1.65,4.24,5.81,6.98,10.37,6.8,3.28.21,6.45-1.25,8.42-3.89,1.96-2.67,2.99-5.92,2.92-9.23,0-3.56-.97-6.64-2.92-9.23-1.99-2.62-5.14-4.07-8.42-3.89-3.56,0-6.48,1.3-8.42,3.89-1.97,2.67-3,5.92-2.92,9.23Z" />
    <path class="thst-4"
      d="m579.72,270.83c2.27,0,4.7.32,6.97.97l5.02,2.11,1.62,1.13-4.05,8.1-1.3-.97-3.24-1.3c-1.39-.58-2.87-.9-4.37-.97-1.62,0-2.92.49-3.89,1.13s-1.3,1.62-1.3,2.92c0,.65,0,1.13.49,1.62s1.3,1.13,2.27,1.62c2.05,1.29,4.22,2.38,6.48,3.24,2.75,1.13,5.18,2.75,7.13,4.86,1.92,1.82,3.02,4.33,3.08,6.97,0,2.59-.49,4.86-1.3,6.64-.89,1.82-2.22,3.38-3.89,4.54-1.62.97-3.24,1.78-5.18,2.27-3.92,1.07-8.04,1.12-11.99.16-2.89-.52-5.64-1.63-8.1-3.24-.74-.37-1.44-.8-2.11-1.3l-.65-.65,5.02-8.42,1.62,1.3,4.21,2.27c1.78.97,3.56,1.46,4.86,1.46,4.37,0,6.48-1.62,6.48-4.37,0-.65,0-1.13-.49-1.62-.32-.65-.81-1.13-1.62-1.62l-1.94-1.3c-1.9-1-3.85-1.92-5.83-2.75-2.75-1.3-4.86-2.92-6.32-4.86-1.39-1.87-2.13-4.15-2.11-6.48,0-3.89,1.46-7.13,4.37-9.72,2.77-2.44,6.35-3.77,10.04-3.73h0Z" />
    <rect class="thst-4" x="600.94" y="271.64" width="10.04" height="44.06" />
    <polygon class="thst-4"
      points="616.17 280.39 616.17 271.64 647.27 271.64 647.27 280.39 636.58 280.39 636.58 315.7 626.86 315.7 626.86 280.39 616.17 280.39" />
    <polygon class="thst-4"
      points="647.59 271.64 659.74 271.64 668.97 285.73 678.04 271.64 690.19 271.64 673.99 295.94 673.99 315.7 663.95 315.7 663.95 295.94 647.59 271.64" />
  </g>
  <g id="Engagement">
    <g class="thst-12">
      <path class="thst-3"
        d="m807.14,465.85l-101.4,58.64-15.71,59.61-59.61-15.87-88.12,50.54v112.58l-32.72,33.21,32.56,33.04v126.99l252.36,145.78,264.35-153.07v-305.65l-251.71-145.78Z" />
    </g>
    <polygon class="thst-4"
      points="625.56 745.1 625.56 753.85 610.66 753.85 610.66 762.6 625.24 762.6 625.24 771.5 610.66 771.5 610.66 780.25 625.72 780.25 625.72 789.16 600.62 789.16 600.62 745.1 625.56 745.1" />
    <polygon class="thst-4"
      points="643.06 761.79 643.06 789.16 633.01 789.16 633.01 745.1 643.06 745.1 660.55 772.48 660.55 744.94 670.75 744.94 670.75 789.16 660.71 789.16 643.06 761.79 643.06 761.79" />
    <path class="thst-4"
      d="m718.54,764.38v9.72c-1.13,5.18-3.56,9.07-7.45,11.82s-8.1,4.05-12.96,4.05c-5.83,0-10.85-2.27-15.06-6.64-4.17-4.35-6.45-10.17-6.32-16.2,0-6.48,2.11-11.82,6.16-16.2,4.05-4.54,9.23-6.64,15.39-6.64,6.52-.28,12.8,2.47,17.01,7.45l-6.48,7.29c-2.01-3.63-5.89-5.82-10.04-5.67-3.08,0-5.67,1.3-7.94,4.05-2.19,2.75-3.34,6.2-3.24,9.72-.13,3.52,1.02,6.98,3.24,9.72,2.27,2.59,4.86,3.89,8.1,3.89,2.43,0,4.7-.81,6.48-2.43,2.11-1.62,2.92-3.56,2.92-6.16h-10.04v-7.77h20.25Z" />
    <polygon class="thst-4"
      points="747.05 745.1 764.86 789.16 754.01 789.16 750.77 780.25 733.93 780.25 730.69 789.16 720 789.16 737.81 745.1 747.05 745.1" />
    <polygon class="thst-3" points="747.37 771.5 742.51 758.55 737.49 771.5 747.37 771.5" />
    <path class="thst-4"
      d="m808.11,764.38v9.72c-1.13,5.18-3.73,9.07-7.61,11.82-3.73,2.75-8.1,4.05-12.96,4.05-5.83,0-10.85-2.27-15.06-6.64-4.17-4.35-6.45-10.17-6.32-16.2,0-6.48,2.11-11.82,6.16-16.2,4.05-4.54,9.23-6.64,15.39-6.64,6.52-.28,12.8,2.47,17.01,7.45l-6.48,7.29c-1.98-3.58-5.79-5.76-9.88-5.67-3.24,0-5.83,1.3-8.1,4.05-2.19,2.75-3.34,6.2-3.24,9.72-.13,3.52,1.02,6.98,3.24,9.72,2.27,2.59,4.86,3.89,8.1,3.89,2.43,0,4.86-.81,6.48-2.43,2.11-1.62,3.08-3.56,3.08-6.16h-10.2v-7.77h20.41Z" />
    <polygon class="thst-4"
      points="839.37 745.1 839.37 753.85 824.15 753.85 824.15 762.6 838.73 762.6 838.73 771.5 824.15 771.5 824.15 780.25 839.37 780.25 839.37 789.16 814.11 789.16 814.11 745.1 839.37 745.1" />
    <polygon class="thst-4"
      points="883.11 789 881 763.08 880.84 763.08 871.77 789 865.78 789 856.71 763.08 856.54 763.08 854.44 789 844.4 789 848.28 745.1 858.97 745.1 868.69 770.53 878.41 745.1 889.26 745.1 893.15 789.16 883.11 789" />
    <polygon class="thst-4"
      points="924.09 745.1 924.09 753.85 908.86 753.85 908.86 762.6 923.44 762.6 923.44 771.5 908.86 771.5 908.86 780.25 924.09 780.25 924.09 789.16 898.98 789.16 898.98 745.1 924.09 745.1" />
    <polygon class="thst-4"
      points="941.58 761.79 941.58 789.16 931.38 789.16 931.38 745.1 941.42 745.1 958.91 772.48 958.91 744.94 969.12 744.94 969.12 789.16 959.08 789.16 941.42 761.79 941.58 761.79" />
    <polygon class="thst-4"
      points="974.46 753.85 974.46 745.1 1005.4 745.1 1005.4 753.85 995.04 753.85 995.04 789.16 984.83 789.16 984.83 753.85 974.46 753.85" />
  </g>
  <g id="Discovery">
    <g class="thst-11">
      <path class="thst-6"
        d="m516.71,807.79l-43.25-43.25,43.25-43.57v-102.05l-97.19-56.04-12.31-45.35-44.87,12.15-110.15-63.66L0,611.79v305.65l265,152.91,251.71-145.78v-116.79Z" />
    </g>
    <path class="thst-4"
      d="m69.16,745.1h12.8c12.08-.18,22.01,9.46,22.19,21.54,0,.16,0,.33,0,.49.18,11.99-9.39,21.85-21.37,22.03-.27,0-.55,0-.82,0h-12.8v-44.06Z" />
    <path class="thst-6"
      d="m79.21,780.09h1.62c3.56,0,6.64-1.13,8.91-3.56,2.37-2.54,3.65-5.92,3.56-9.39,0-3.73-1.13-6.8-3.4-9.39-2.34-2.5-5.65-3.86-9.07-3.73h-1.62v26.08Z" />
    <polygon class="thst-4" points="120.35 745.1 120.35 789 110.15 789 110.15 744.94 120.35 745.1" />
    <path class="thst-4"
      d="m144.48,744.29c4.24.02,8.41,1.08,12.15,3.08l1.62.97-4.05,8.1-1.3-.81-3.24-1.46c-1.4-.52-2.88-.79-4.37-.81-1.62,0-3.08.32-3.89,1.13-.92.61-1.47,1.65-1.46,2.75,0,.65.32,1.3.65,1.62.49.65,1.13,1.3,2.27,1.78,2.05,1.24,4.22,2.27,6.48,3.08,2.75,1.13,5.18,2.75,7.13,4.86,1.96,1.86,3.07,4.43,3.08,7.13,0,2.59-.49,4.86-1.46,6.64-.77,1.8-2.07,3.32-3.73,4.37-1.62,1.13-3.24,1.94-5.18,2.43-3.92,1.07-8.04,1.12-11.99.16-2.89-.52-5.64-1.63-8.1-3.24-.74-.37-1.44-.81-2.11-1.3l-.65-.65,4.86-8.42,1.94,1.3c.65.65,2.11,1.3,3.89,2.27,1.94.97,3.73,1.3,5.18,1.3,4.21,0,6.32-1.46,6.32-4.21,0-.65-.16-1.3-.49-1.62-.32-.65-.81-1.13-1.62-1.62l-1.94-1.3c-1.96-1.01-3.96-1.93-5.99-2.75-2.59-1.3-4.7-2.92-6.16-4.86-1.39-1.87-2.13-4.15-2.11-6.48,0-4.05,1.46-7.29,4.37-9.72,2.73-2.41,6.24-3.73,9.88-3.73h0Z" />
    <path class="thst-4"
      d="m189.35,780.09c1.48,0,2.96-.21,4.37-.65,1.62-.49,2.59-.97,3.24-1.46l.97-.65,4.21,8.58c-.68.6-1.44,1.09-2.27,1.46-2.19,1.09-4.54,1.8-6.97,2.11-10.02,2.28-20.38-2.09-25.75-10.85-3.96-6.11-4.45-13.85-1.3-20.41,1.3-2.92,3.08-5.35,5.18-7.29,8.08-7.43,19.98-8.93,29.64-3.73l1.62,1.13-4.37,8.42c-1.2-.92-2.58-1.59-4.05-1.94-3.62-1.07-7.5-.89-11.01.49-1.8.69-3.42,1.8-4.7,3.24-1.08,1.2-1.96,2.57-2.59,4.05-1.72,4.67-.59,9.91,2.92,13.44,2.59,2.75,6.16,4.05,10.85,4.05h0Z" />
    <path class="thst-4"
      d="m205.71,767.13c0-6.48,2.11-11.82,6.48-16.2,4.07-4.33,9.77-6.74,15.71-6.64,12.34.09,22.28,10.17,22.19,22.51,0,.05,0,.11,0,.16,0,6.48-2.11,11.99-6.48,16.36-4.09,4.27-9.8,6.62-15.71,6.48-5.97.19-11.74-2.17-15.87-6.48-4.17-4.35-6.45-10.17-6.32-16.2Z" />
    <path class="thst-6"
      d="m216.57,767.13c0,2.27.32,4.37.97,6.32,1.65,4.24,5.81,6.98,10.37,6.8,3.73,0,6.48-1.3,8.58-3.89,1.9-2.69,2.87-5.94,2.75-9.23,0-3.73-.97-6.8-2.92-9.39-1.99-2.62-5.14-4.07-8.42-3.89-3.56,0-6.48,1.3-8.42,3.89-2.01,2.71-3.04,6.02-2.92,9.39Z" />
    <polygon class="thst-4"
      points="270.02 789 251.39 745.26 262.73 745.26 273.91 774.1 285.08 745.26 296.42 745.26 277.79 789 270.02 789" />
    <polygon class="thst-4"
      points="324.93 745.1 324.93 753.85 309.7 753.85 309.7 762.6 324.28 762.6 324.28 771.5 309.7 771.5 309.7 780.25 324.93 780.25 324.93 789.16 299.66 789.16 299.66 745.1 324.93 745.1" />
    <path class="thst-4"
      d="m332.22,745.1h15.87c4.21,0,7.61,1.13,10.37,3.24,2.78,2.44,4.27,6.03,4.05,9.72.12,2.9-.74,5.75-2.43,8.1-1.63,2.3-3.96,4-6.64,4.86l15.06,18.14h-12.63l-13.61-17.49v17.49h-10.04v-44.06Z" />
    <path class="thst-6"
      d="m342.26,764.54h3.56l2.27-.32c.81-.32,1.46-.49,1.94-.97.49-.32.97-.97,1.3-1.62.32-.81.49-1.62.49-2.75s-.16-1.94-.49-2.75c-.24-.67-.7-1.24-1.3-1.62-.49-.49-1.13-.81-1.94-.97-1.5-.27-3.01-.44-4.54-.49h-1.3v11.5Z" />
    <polygon class="thst-4"
      points="367.37 745.1 379.35 745.1 388.59 759.19 397.82 745.1 409.97 745.1 393.77 769.4 393.77 789 383.57 789 383.57 769.24 367.37 745.1" />
  </g>
</svg>