<?xml version="1.0" encoding="UTF-8"?>
<svg id="Layer_1" data-name="Layer 1" xmlns="http://www.w3.org/2000/svg" viewBox="0 0 1181.6 271.62">
  <defs>
    <style>
      .cls-1 {
        fill: #f3a061;
      }

      .cls-1, .cls-2, .cls-3, .cls-4, .cls-5, .cls-6, .cls-7, .cls-8, .cls-9, .cls-10 {
        stroke-width: 0px;
      }

      .cls-2 {
        fill: #1d1d1b;
      }

      .cls-3 {
        fill: #1e87ab;
      }

      .cls-4 {
        fill: #d01c1c;
      }

      .cls-5 {
        fill: #cea0b5;
      }

      .cls-6 {
        fill: #93b195;
      }

      .cls-7 {
        fill: #eeb019;
      }

      .cls-8 {
        fill: #e75519;
      }

      .cls-9 {
        fill: #fefdfb;
      }

      .cls-10 {
        fill: #fbfbfa;
      }
    </style>
  </defs>
  <path class="cls-2" d="m1046.74,113.14c5.83-2.84,11.59-5.84,17.51-8.47,4.06-1.8,8.56-4.17,12.65-.54,4.13,3.67,2.9,8.46,1.46,13.04-3.56,11.3-5.86,22.85-7.03,34.63-.1.99-.28,1.98-.31,2.98-.04,1.55.26,3.2,1.73,3.87,1.38.63,2.51-.59,3.45-1.5,7.3-7.09,14.36-14.38,19.27-23.45,7.57-13.98,17.58-25.06,32.94-31.24,12.19-4.91,22.05-.64,32.1,5.04,1.36.77,1.61,2.09,1.34,3.47-.32,1.64-1.34,2.79-3.07,2.73-2.32-.07-4.64-.32-6.94-.65-4.9-.7-9.44-.12-12.58,4.13-3.19,4.31-2.21,8.83.1,13.17.86,1.61,1.74,3.32,3.02,4.56,6.9,6.72,12.02,14.26,11.47,25.72,5.26-4.47,9.27-8.31,12.89-12.58,2.04-2.41,4.14-4.78,6.3-7.09,1.73-1.85,3.93-1.57,6.07-.95,2.51.73,2.49,3.05,2.49,4.94,0,4.57-2.22,8.5-5.22,11.6-10.52,10.87-22.51,19.24-38.63,16.98-12.18-1.71-21.63-8.28-27.89-19.02-1.22-2.09-2.98-4.57-.77-6.86,2.12-2.2,5.09-2.28,7.95-1.48,3.07.86,4.95,3.24,6.78,5.65,1.51,1.99,2.97,4.03,4.63,5.88,2.45,2.73,5.44,3.09,8.58,1.28,3.28-1.89,3.86-4.86,2.71-8.2-.47-1.38-1.22-2.82-2.24-3.84-7.38-7.43-10.99-16.87-14.56-26.6-2.91.18-4.24,2.53-5.54,4.75-9.22,15.61-20.86,29.18-33.83,41.8-5.64,5.48-11.76,5.32-17.96,3.22-5.7-1.93-8.01-7.27-8.48-13.08-.6-7.41,1.89-14.48,2.79-21.74.49-3.96,1.27-7.88,1.99-11.8.47-2.6.02-3.71-3.04-2.88-9.96,2.71-18.7,6.29-24.06,16.5-4.35,8.29-10.3,15.9-16.6,23.04-9.55,10.84-22.24,16.81-37.73,7.51-2.45-1.47-5.02-1.42-7.72-.7-5.3,1.42-10.62,2.78-15.97,4.02-1.77.41-3.63.54-5.45.54-12.64,0-17.6-6.37-14.61-18.66,2.71-11.16,5.85-22.22,7.59-33.58.33-2.13,2.04-5.14-.4-6.42-2.48-1.3-4.53,1.28-6.27,3.02-4.7,4.72-9.76,9.16-13.88,14.34-7.13,8.95-9.25,20.14-12.44,30.79-.47,1.59-.73,3.24-1.11,4.85-1.02,4.27-3.37,6.58-8.12,6.29-5.82-.35-11.61.23-17.42.94-8.35,1.03-15.65-1.62-20.57-8.65-2.66-3.8-4.67-3.58-7.76-.78-6.12,5.56-13.2,8.49-21.73,8.47-12.5-.03-19.88-7.69-18.1-19.97,1.33-9.22,3.03-18.38,5.88-27.29.42-1.32,1.67-2.95.41-4.15-1-.95-2.48.43-3.74.44-11.08.04-16.11,6.86-19.96,16.24-3.66,8.92-9.42,16.84-15.64,24.27-7.99,9.55-19.21,10.28-28.37,1.8-1.9-1.76-3.03-2.05-5.47-.59-4.98,2.97-10.12,5.78-15.68,7.65-7.75,2.61-19.38-4.72-18.76-12.77,1.3-16.92,2.93-33.91,12.56-48.8,6.53-10.1,17.88-12.74,28.07-6.1,2.79,1.81,3.97,2.83,5.95-1.41,1.94-4.16,7.16-2.36,10.94-2.11,3.15.21,2.36,3.5,2.03,5.26-1.81,9.8-3.97,19.54-6.04,29.3-1.24,5.86-2.71,11.68-3.7,17.58-.45,2.66-1.03,6.43,2.03,7.52,2.65.94,4.66-2.05,6.17-4.21,7.23-10.34,15.51-20.02,19.45-32.38.93-2.93,1.39-5.41-.88-7.8-.11-.12-.2-.27-.28-.41-3.83-6.52-3.91-12.2-.23-15.67,4.05-3.82,13.81-4.03,18.83-.51,3.34,2.34,2.9,5.75,2.7,9.05-.21,3.5.62,4.61,4.12,2.66,4.64-2.6,9.45-4.94,14.31-7.1,3.19-1.41,6.85-2.86,9.91-.16,3.21,2.84,1.57,6.48.42,9.77-4.66,13.35-9.76,26.6-10.75,40.91-.24,3.38-1.71,7.54,2.2,9.47,3.69,1.83,6.49-1.37,9.26-3.42,1.2-.89,2.37-1.84,3.54-2.78,7.64-6.11,13.13-12.44,13.7-23.71,1.01-19.98,6.92-39.24,14.08-57.99,2.41-6.31,1.7-7.45-4.94-7.68-14.63-.51-29.18-2.9-43.89-1.9-3.96.27-9-4.48-9.25-8.45-.25-3.89,2.81-3.65,5.19-3.59,12.82.32,25.63.76,38.45,1.23,4.82.18,9.67.3,14.45.91,5.61.72,8.8-1.62,10.58-6.76,3-8.66,8.08-15.99,14.7-22.3,3.47-3.31,7.22-5.63,12.08-3.35,4.72,2.21,6.58,6.16,6.6,11.34.03,6.04-.68,11.94-2.03,17.81-.76,3.31-1.05,5.28,4.1,4.98,13.29-.77,26.64-.54,39.97-.61,1.45,0,3.11.22,4.32.93,3.04,1.79,6.45,4.14,5.76,7.95-.71,3.93-4.8,3.36-7.91,3.44-14.99.38-29.98.88-44.97.97-4.82.03-7.27,2.01-8.81,6.33-4.74,13.32-8.8,26.94-15.75,39.34-5.53,9.86-11.45,19.52-17.4,29.14-2.79,4.51-2.44,8.87-.23,13.26,2.99,5.91,7.02,6.79,12.55,3.14,4.28-2.82,7.45-6.4,9.6-11.16,7.13-15.77,14.56-31.4,20.06-47.85.76-2.28,2.03-3.92,4.51-4,3.73-.12,6.72,1.87,7.82,5.13.89,2.66,1.75,2.47,3.73,1.66,3.23-1.32,6.46-2.76,9.83-3.62,9.97-2.54,16.99,3.46,15.78,13.68-1.58,13.24-5.19,26.1-7.75,39.16-.42,2.14-1.75,4.5.78,6.42,2.39,1.82,4.66,1.08,7.04.05,9.73-4.23,10.11-4.24,9.58-15.01-.79-16.03,2.95-30.32,13.94-42.42,4.68-5.15,14.72-7.46,20.6-4.02,4.4,2.57,5.98,7.25,4.71,11.7-4.14,14.53-7.94,29.29-17.67,41.49-1.5,1.87-3.86,3.74-1.82,6.52,2.05,2.79,4.98,3.91,8.38,3.11,2.48-.59,4.52-2.1,6.26-3.95,8.81-9.39,15.77-20.16,22.99-30.75,1.67-2.45.92-4.06-1.26-5.9-6.04-5.1-6.92-12.87-2.4-18.64,3.81-4.85,14.44-5.98,19.74-2.14,4.18,3.03,4.97,7.23,4.31,11.97-.13.27-.44.63-.36.79.3.58.75.36,1.16.05Zm-292.8,8.96c-.22-1.98-.32-3.98-.68-5.94-.61-3.27-2.87-5.33-5.84-6.24-2.74-.85-4.94.87-6.28,3.06-7.79,12.68-12.47,26.39-13.11,41.34-.09,2.14.11,4.63,2.28,5.72,2.08,1.04,3.8-.72,5.29-1.93,10.84-8.77,14.18-21.62,18.32-34.02.2-.6.03-1.32.02-1.99Zm120.56-3.85c1.65-.5,1.91-1.96,2.63-3.02,8.56-12.72,12.47-27.36,17.07-41.71.4-1.26,2-3.17.18-3.93-1.8-.76-3.96,0-4.79,2.35-5.38,15.29-11.85,30.22-15.09,46.31Zm119.87-5.18l-1.13-.66c-6.25,6.89-9.82,14.88-9.01,24.67,3.38-8,6.76-16.01,10.14-24.01Zm-89.66-72.96c-.42-.12-.85-.23-1.27-.35-1.9,4.56-3.82,9.11-5.68,13.68-.37.9-.82,2.06.42,2.57,1.08.44,1.9-.26,2.26-1.34,1.6-4.81,3.41-9.56,4.27-14.56Z"/>
  <path class="cls-2" d="m639.14,57.63c1.56-2.88,3.27-5.7,4.66-8.65,5.33-11.3,13.59-20.14,23.6-27.27,6.85-4.88,14.97-6.86,23.26-6.01,8.32.86,12.91,7.72,17.84,13.47,4.68,5.45,5.9,12.31,5.66,19.24-.9,26.21-3.92,52.1-12.93,76.96-3.53,9.73-7.89,19.07-13.62,27.72-7.02,10.58-19.91,15.33-29.86,11.15-9.47-3.99-14.58-13.3-12.52-23.36,1.1-5.37,2.63-10.65,4.08-15.94.34-1.25.97-2.52,1.79-3.52.98-1.19,1.97-3.09,3.94-2.21,1.77.79,2.81,2.55,2.54,4.51-.46,3.29-1.24,6.53-1.9,9.79-1.19,5.88-1.08,11.58,2.29,16.85,4.76,7.42,10.58,8.13,16.76,1.8,4.47-4.58,7.79-10.06,10.24-15.87,7.7-18.29,13.59-37.01,15.81-56.98,1.3-11.65.91-23.22,1.54-34.81.17-3.18-.2-6.28-1.55-9.26-3.98-8.81-11.33-12.09-20.43-9.01-9.77,3.3-16.98,9.78-22.07,18.52-3.93,6.75-7.2,13.88-10.94,20.74-7.63,14.01-8.33,29.33-8.31,44.68.04,28.46.81,56.92-.84,85.36-1.2,20.76-1.92,41.57-7.75,61.75-.84,2.9-1.65,5.78-3.45,8.23-3.32,4.5-7.76,6.84-13.4,5.91-5.41-.88-10.26-5.96-11.32-11.31-6.02-30.36-3.76-60.53,1.43-90.76,4.62-26.88,13.36-52.53,22.13-78.18,3.84-11.23,3.96-22.52,3.08-34.01-.78-10.29-1.81-20.55-2.76-30.82-.2-2.2-.58-4.95,2.21-5.26,2.82-.31,5.03,1.42,5.42,4.66.96,7.93,1.94,15.85,2.95,23.77.33,2.61.78,5.2,1.18,7.79.4.11.81.21,1.21.32Zm-10.27,62.34c-1.99,1.27-1.87,3.27-2.48,4.88-8.21,21.42-11.2,44.1-15.69,66.39-4.29,21.25-5.1,42.59,1.27,63.7.73,2.43.56,5.68,4.32,5.73,3.86.05,3.71-3.17,4.23-5.65,2.95-14.2,3.9-28.63,5.06-43.05,2.46-30.5,5.2-60.97,3.29-92Z"/>
  <path class="cls-4" d="m56.78,61c.13,12.15.19,24.29-2.21,36.29-1.54,7.68-6.66,12.84-12.1,17.83-1.3,1.19-2.98,1.4-4.66,1.53-4.81.36-9.62.99-14.43.98-4.29-.01-5.89,1.57-5.79,5.89.46,18.79.62,37.58,1.06,56.36.15,6.48-1.27,8.94-7.24,10.65-6.13,1.76-9.34-.25-9.72-6.55-1.62-26.25-2.64-52.52-.49-78.78C3.2,81.06.08,57,.19,32.89c.03-7.33-.13-14.64.92-21.92.14-.98.51-2.15.15-2.95C-1.3,2.44,2.28,1.45,6.46.78c12.94-2.06,25.15-.12,36.52,6.57,8.14,4.79,12.79,11.47,13.65,21.24.96,10.84.09,21.61.15,32.41Zm-17.67-3.35c0-8.16.36-16.33-.1-24.46-.47-8.35-2.89-16.06-10.65-20.86-2.5-1.55-5.36-2.72-8.05-1.6-2.82,1.17-1.78,4.32-1.89,6.71-1.38,28.94,2.69,57.85.34,86.79-.14,1.7-.07,3.21,2.34,3.58,8.95,1.36,14.76-2.95,16.41-11.87,2.35-12.69,2.72-25.45,1.6-38.28Z"/>
  <path class="cls-8" d="m86.53,133.47c-.17,1.98-.42,3.69-.45,5.41-.21,14.65-.42,29.3-.54,43.95-.03,3.56-.59,6.73-4.32,8.18-4.06,1.58-8.19,1.63-12.05-.56-2.07-1.18-1.6-3.47-1.62-5.44-.23-23.63.18-47.25,1.23-70.86.72-16.29-.61-32.6.43-48.92.38-5.98,1.02-11.9,1.64-17.85.28-2.69,1.67-4.21,4.29-4.77,12.61-2.65,24.47-1.63,35.05,6.65,4.78,3.74,7.13,8.87,8.25,14.41,3.32,16.47,3.96,33-.3,49.47-1.21,4.68-3.82,8.23-8.49,9.69-4.76,1.49-5.11,4.3-3.62,8.46,4.65,13,9.27,26.02,13.6,39.13,2.7,8.17-.42,12.31-8.67,12.52-4.07.1-6.18-1.79-7.8-5.53-5.55-12.88-7.78-26.88-13.69-39.61-.65-1.41-.63-3.26-2.93-4.34Zm1.06-46.78c-.28,0-.56,0-.85,0,0,9.46.13,18.92-.06,28.37-.08,4.07,1.66,4.87,5.19,4.14,6.06-1.25,11.12-6.43,11.27-13.49.3-13.39.99-26.88-2.69-40.03-1.3-4.66-3.67-8.46-8.14-10.76-3.32-1.71-4.82-1.15-4.77,2.89.13,9.63.04,19.25.04,28.88Z"/>
  <path class="cls-7" d="m140.78,127.94c-.11-2.16-.03-4.35-.36-6.48-2.96-18.58,1.31-36.83,2.51-55.21.52-8,10.83-16.71,19.76-17.09,10.18-.42,20.3.64,30.27,2.83,3.19.7,4.74,2.84,6.45,5.58,7.86,12.58,7.5,26.47,7.91,40.52.48,16.48-.22,32.92-.08,49.38.07,8.55-.65,16.97-2.83,25.23-2.37,9-7.94,14.33-17.21,16.74-10.85,2.81-20.73,1.31-30.39-3.79-8.62-4.55-13.65-11.68-14.47-21.34-1.03-12.09-2.1-24.2-1.56-36.38Zm48.69-21.53c0-1.33.07-2.66-.01-3.99-.64-9.77.5-19.66-2.03-29.29-3.1-11.78-5.14-13.25-17.06-13.9-3.53-.19-5.73,1.2-7.41,3.92-1.51,2.44-2.13,5.18-2.52,8.01-2.05,15.17-3.63,30.35-2.19,45.7,1.52,16.17-.14,32.55,3.3,48.61,1.72,8.05,9.01,14.28,17.27,14.47,3.38.08,5.59-1.23,7.1-4.34,2.99-6.17,3.78-12.72,3.67-19.41-.11-6.97-1.1-13.98-.68-20.91.58-9.63,1.12-19.24.55-28.88Z"/>
  <path class="cls-6" d="m399.27,116.22c0-10.48.32-20.98-.11-31.44-.27-6.65.97-12.97,2.84-19.11,2.87-9.42,11.24-12.88,19.59-15.29,12.16-3.52,24.02-2.32,35.05,4.55,3.39,2.11,5.28,4.79,5.77,8.75.7,5.64.97,11.24.1,16.89-.65,4.21-4.09,6.76-9.46,6.79-4.54.03-7.24-2.26-7.69-6.73-.37-3.63-.62-7.28-.81-10.93-.26-4.89-1.97-8.82-6.98-10.41-5.21-1.66-10.37-1.52-14.47,2.49-3.65,3.57-5.82,7.97-5.79,13.35.14,24.3.03,48.6.3,72.9.09,7.95.65,15.94,2.68,23.73,1.38,5.29,5.79,8.86,11.16,8.97,5.54.12,9.58-3.17,11.15-8.81,1.41-5.07,2.85-9.98,2.95-15.42.15-8.06,6.57-12.35,14.57-10.86,2.15.4,3.58,1.49,3.22,3.63-1.7,10.17-.76,20.81-7.56,29.95-9.17,12.31-21.44,13.54-34.83,10.96-14.19-2.73-19.92-10.29-20.71-25.07-.87-16.3-.63-32.59-.97-48.89Z"/>
  <path class="cls-3" d="m263.49,123.43c.27-12.02,2.17-24.65-.11-37.27-.24-1.31-.44-2.62-.66-3.93-1.76-10.52-1.75-10.59-12.53-11.59-8.13-.75-16.29-1.18-23.89-4.65-1.63-.75-3.76-.98-3.92-3.29-.19-2.67,2.2-3.05,3.92-3.86,4.79-2.24,9.85-1.44,14.75-.76,10.91,1.51,21.85,2.43,32.86,2.07,10.75-.35,21.18,2.06,31.73,3.44,2.83.37,4.68,1.84,4.8,4.8.12,2.95-2.08,4.02-4.44,4.56-6.67,1.54-13.25-.33-19.85-.8-5.88-.42-6.39-.45-5.71,5.25,1.85,15.44,1.57,30.87.6,46.34-.54,8.64,1.86,17.16,1.48,25.87-.33,7.66-.92,15.27-2.04,22.85-.84,5.65-3.54,10.32-7.42,14.4-2.01,2.13-4.48,3.91-7.29,4-8.13.24-16.39.81-24.3-1.65-10.82-3.37-17.26-13.19-16.51-24.53.33-5.02,2.1-6.71,7.24-6.84,1.33-.03,2.67.13,4,.02,4.17-.36,6.1,1.42,6.28,5.68.22,5.2.97,10.26,5.26,14.07,3.23,2.88,6.75,4.47,10.94,2.84,4.05-1.58,4.34-5.2,4.71-9.06,1.55-15.8.82-31.57.09-47.96Z"/>
  <path class="cls-1" d="m343.06,87.61c0,6.16.08,12.32-.03,18.47-.06,3.54,1.46,4.73,4.91,4.27,6.09-.82,12.21-1.6,18.38-1.46,1.64.04,3.3.33,4.91.66,1.56.32,2.79,1.17,2.96,2.93.15,1.54-.85,2.42-2,3.2-3.68,2.5-7.77,3.76-12.19,3.92-4.16.15-8.32.2-12.48.25-2.51.03-4.2.83-4.15,3.72.3,16.79.8,33.56,2.93,50.24.59,4.61,2.74,6.51,7.63,6.18,7.3-.49,14.64-.33,21.97-.33,1.97,0,3.95.47,5.92.68,3.24.34,5.58,1.93,5.36,5.32-.22,3.4-3.06,4.54-6.05,4.84-14.11,1.4-28.27.73-42.41.69-3.87,0-6.31-2.18-7.6-6.03-2.24-6.68-3.15-13.47-3.49-20.5-1.59-32.71-2.27-65.45-3.12-98.18-.04-1.5-.05-3-.12-4.49-.14-3.39-.32-6.75,3.6-8.46,4.09-1.78,8.23-3.27,12.21-.05,2.92,2.36,6.15,2.1,9.49,1.93,5.98-.32,11.96-.67,17.94-.82,3.16-.08,6.38.68,6.68,4.45.28,3.6-2.49,5.12-5.69,5.8-6.77,1.44-13.59,1.12-20.36.17-3.52-.49-4.96.59-4.89,4.17.12,6.15.03,12.3.03,18.46-.12,0-.24,0-.36,0Z"/>
  <path class="cls-5" d="m496.34,146.5c-.19-22.44.47-45.85,2.87-69.19.15-1.48.11-3,.04-4.49-.46-11.09-1.33-11.91-12.2-12.31-2.65-.1-5.29-.46-7.93-.79-2.92-.37-6.31-1.26-6.48-4.38-.19-3.57,3.73-5.06,6.4-5.14,20.73-.64,41.48-1.35,62.14,1.34,2.73.35,5.4,1.31,5.65,3.93.28,2.88-2.69,3.9-5.13,4.54-5.58,1.46-11.23.64-16.86.3-1.32-.08-2.63-.33-3.94-.51-4.03-.56-5.66.94-5.56,5.24.23,9.31.11,18.64-.09,27.96-.33,15.28-2.53,30.52-1.67,45.8.8,14.26-1.52,28.54.79,42.76.56,3.43-.53,6.24-3.76,7.97-3.59,1.93-7.28,2.3-10.98.51-2.33-1.12-2.1-3.46-2.38-5.63-1.61-12.27-.39-24.59-.92-37.89Z"/>
  <path class="cls-2" d="m578.81,146.74c.12,6.71-5.11,12.08-11.85,12.17-6.72.1-12.12-5.18-12.16-11.88-.04-6.64,5.31-12.15,11.88-12.24,6.68-.1,12,5.15,12.13,11.95Z"/>
  <path class="cls-2" d="m578.8,91.51c.13,6.85-4.95,12.11-11.75,12.19-6.92.08-12.12-4.89-12.25-11.71-.13-6.69,5.11-12.17,11.78-12.3,6.69-.14,12.1,5.1,12.23,11.82Z"/>
  <path class="cls-10" d="m753.94,122.1c0,.67.18,1.39-.02,1.99-4.14,12.4-7.48,25.25-18.32,34.02-1.49,1.2-3.2,2.97-5.29,1.93-2.17-1.09-2.38-3.57-2.28-5.72.64-14.95,5.31-28.66,13.11-41.34,1.35-2.19,3.54-3.9,6.28-3.06,2.96.91,5.23,2.98,5.84,6.24.37,1.95.46,3.96.68,5.94Z"/>
  <path class="cls-10" d="m874.49,118.25c3.24-16.09,9.71-31.02,15.09-46.31.83-2.36,2.99-3.11,4.79-2.35,1.81.76.22,2.67-.18,3.93-4.6,14.34-8.51,28.98-17.07,41.71-.72,1.07-.98,2.53-2.63,3.02Z"/>
  <path class="cls-10" d="m994.37,113.08c-3.38,8-6.76,16.01-10.14,24.01-.81-9.79,2.76-17.78,9.01-24.67l1.13.66Z"/>
  <path class="cls-10" d="m904.7,40.12c-.86,5-2.67,9.75-4.27,14.56-.36,1.08-1.18,1.78-2.26,1.34-1.24-.51-.79-1.67-.42-2.57,1.87-4.57,3.78-9.12,5.68-13.68.42.12.85.23,1.27.35Z"/>
  <path class="cls-2" d="m1046.74,113.14c-.41.3-.86.52-1.16-.05-.08-.16.23-.52.36-.79.27.28.54.56.8.84Z"/>
  <path class="cls-10" d="m628.87,119.97c1.91,31.02-.83,61.5-3.29,92-1.16,14.42-2.11,28.85-5.06,43.05-.52,2.48-.37,5.71-4.23,5.65-3.77-.05-3.59-3.3-4.32-5.73-6.38-21.11-5.56-42.45-1.27-63.7,4.5-22.29,7.48-44.97,15.69-66.39.61-1.6.49-3.6,2.48-4.88Z"/>
  <path class="cls-9" d="m39.11,57.65c1.12,12.83.75,25.59-1.6,38.28-1.65,8.92-7.46,13.23-16.41,11.87-2.41-.37-2.48-1.88-2.34-3.58,2.35-28.94-1.72-57.86-.34-86.79.11-2.39-.93-5.54,1.89-6.71,2.69-1.11,5.55.06,8.05,1.6,7.76,4.8,10.18,12.51,10.65,20.86.46,8.13.1,16.3.1,24.46Z"/>
  <path class="cls-10" d="m87.55,57.81c-.05-4.04,1.45-4.6,4.77-2.89,4.47,2.3,6.84,6.1,8.14,10.76,3.68,13.15,2.99,26.64,2.69,40.03-.16,7.05-5.22,12.23-11.27,13.49-3.54.73-5.28-.07-5.19-4.14.19-9.45.06-18.91.06-28.37"/>
  <path class="cls-9" d="m189.47,106.41c.57,9.65.03,19.25-.55,28.88-.42,6.93.57,13.93.68,20.91.11,6.69-.69,13.24-3.67,19.41-1.51,3.11-3.72,4.42-7.1,4.34-8.26-.2-15.54-6.42-17.27-14.47-3.44-16.06-1.78-32.44-3.3-48.61-1.45-15.35.14-30.53,2.19-45.7.38-2.83,1.01-5.57,2.52-8.01,1.68-2.72,3.88-4.11,7.41-3.92,11.93.65,13.97,2.12,17.06,13.9,2.53,9.62,1.39,19.52,2.03,29.29.09,1.32.01,2.66.01,3.99Z"/>
</svg>